<svg width="100" height="47" viewBox="0 0 100 47" fill="none" xmlns="http://www.w3.org/2000/svg">
<g clip-path="url(#clip0_71_826)">
<path d="M0.744325 0.744247H36.0849V14.7271H23.7709V11.7952H16.3736V18.6513H26.6352V29.1159H16.3961V34.7542H19.4182V45.5345H0.699219V34.7542H3.90174V11.7501H0.699219L0.744325 0.744247ZM39.1972 0.744247H57.9162V11.705H54.849V34.7091H57.9162V45.4894H39.1972V34.7091H42.3095V11.705H39.1972V0.744247ZM60.8932 0.744247H78.259V11.705H76.3645V34.258L76.8156 34.7091H83.2206L83.6717 34.258V11.705H81.7773V0.744247H99.1431V11.705H96.0308V37.1899L88.0019 45.5345H72.1246L64.0957 37.1899V11.705H60.8932V0.744247Z" fill="#5B5B5B" stroke="#DEDEDE" stroke-width="3.3"/>
</g>
<defs>
<clipPath id="clip0_71_826">
<rect width="100" height="46.369" fill="white"/>
</clipPath>
</defs>
</svg>
