<svg xmlns="http://www.w3.org/2000/svg" id="Layer_1" data-name="Layer 1" viewBox="0 0 1200 480.12"><defs><style>.cls-1{fill:#5b5b5b;stroke-width:0}</style></defs><path d="M499.17 75.78c-79.68 0-131.34 62.17-153.23 108.58-3.5 7.01-7.88 17.51-18.39 13.13-11.38-4.38-2.63-21.89 4.38-35.9 7-14.01 11.38-28.9 11.38-49.91V89.79c-77.37 0-140.1 62.73-140.1 140.1v250.23h140.1l1.02-163.32c0-87.13 37.48-123.43 94.39-123.43 49.91 0 86.72 30.4 86.72 134.6v152.16h140.1v-208.2c0-131.34-66.55-196.14-166.37-196.14zm641.03 126.09c33.02 0 59.8-26.77 59.8-59.8V89.79h-126.09V0h-140.1v338.26c0 111.2 43.78 141.85 136.6 141.85H1200V368.03h-84.06c-40.28 0-42.03-1.75-42.03-45.53V201.86h66.29zm-340.11-59.45c-27 0-51.55-12.01-69.82-31.6v369.3h138.95V111.55c-18.19 19.17-42.47 30.87-69.13 30.87z" class="cls-1"/><path d="M799.86 116.1c31.38 0 56.82-25.49 56.82-56.93S831.24 2.24 799.86 2.24s-56.82 25.49-56.82 56.93 25.44 56.93 56.82 56.93zM69.82 142.42c-27 0-51.55-12.01-69.82-31.6v369.3h138.95V111.55c-18.19 19.17-42.47 30.87-69.13 30.87z" class="cls-1"/><ellipse cx="69.59" cy="59.18" class="cls-1" rx="56.82" ry="56.93"/></svg>